<?xml version="1.0" encoding="utf-8"?>
<!-- Generator: Adobe Illustrator 18.0.0, SVG Export Plug-In . SVG Version: 6.00 Build 0)  -->
<!DOCTYPE svg PUBLIC "-//W3C//DTD SVG 1.1//EN" "http://www.w3.org/Graphics/SVG/1.1/DTD/svg11.dtd">
<svg version="1.1" id="Layer_1" xmlns="http://www.w3.org/2000/svg" xmlns:xlink="http://www.w3.org/1999/xlink" x="0px" y="0px"
	 viewBox="0 0 1700 1400" enable-background="new 0 0 1700 1400" xml:space="preserve">
<g>
	<!-- <rect fill="#FFFFFF" width="1700" height="1400"/> -->
	<g>
		<path fill="#F3F5F9" d="M137.7,1331.4h1331.1c159.1-232.5,230.5-525.7,174.7-801.9c-14.4-71.3-45.6-151.1-115.1-172.7
			c-61.1-18.9-126.1,15.9-189.9,11.8c-88.1-5.8-152.5-81.6-226.7-129.5c-137.5-88.7-332.2-76.7-457.7,28.3
			c-43.1,36-78.3,81.4-125.4,112c-72.9,47.4-165.3,53.7-243,92.8c-84.1,42.3-145.5,120.6-186.7,205.2
			C0.9,879.5,25.1,1137.2,137.7,1331.4z"/>
		<g>
			<path fill="#00848A" d="M639.7,1331.4l110-188.9c0,0-54-314-138.6-414.7c-33.4,136.7,42.6,390.7,42.6,390.7L578,1331.4H639.7z"/>
			<path fill="#F3F5F9" d="M214.2,1331.4h379c-19.6-86.4,39.3-509.9,17.9-603.5L263.7,702C225.7,813.3,186.2,1215.3,214.2,1331.4z"
				/>
			<g>
				<g>
					<path fill="#EB633E" d="M1109.9,905.5l-53.1-120.1c-16.8,31.9-31.5,97.6-40.9,156.7c22,21.3,50.7,35.7,80.9,40.4
						C1106.6,938,1109.9,905.5,1109.9,905.5z"/>
					<path fill="#FFBF83" d="M1015.9,942.1c-6.5,40.7-10.5,78.2-11,99.3l-137.2-243c19.6-21.6,33.2-51.4,30.9-80.5
						c-9.6-3.7-19.3,4.7-26.2,12.4c-7,7.9-14.1,15.7-21.1,23.6c4.9-22.3,7.6-49.3,12.5-71.6c-32.8-6.3-68.6,6.7-89.8,32.5
						c8.4,35.6,22.3,66.9,47.7,93.3c31.5,101.7,86,242.4,146.2,333.5c17.6,26.7,57.3,25.2,73.1-2.6c28.2-49.7,45.5-109.8,55.8-156.6
						C1066.6,977.8,1037.9,963.4,1015.9,942.1z"/>
				</g>
				<path fill="#FDDBCF" d="M1072,727.9c-40.3,63.1-56.8,175.1-56.8,175.1c23.9,27.2,102.1,37.1,102.1,37.1L1072,727.9z"/>
				<path fill="#FFE7DC" d="M1468.9,1331.4h-379c19.6-86.4-39.3-509.9-17.9-603.5l347.5-25.9
					C1457.4,813.3,1496.9,1215.3,1468.9,1331.4z"/>
				<g>
					<path fill="#FFBF83" d="M1276,653.5c-4.6,6.6-10.1,12.6-16.3,17.7c-12.8,10.6-27.9,17.8-43.4,23.7c-21.5,8.2-44,13.8-66.8,16.8
						c-6.6,6.3-15.1,10.7-26.2,12.4c16.8,38.5,59.4,64.2,101.3,61.1s80.2-34.8,91.1-75.4C1290.5,701.1,1280.2,681.7,1276,653.5z"/>
					<path fill="#EB633E" d="M1259.7,671.2c6.2-5.1,11.8-11.1,16.3-17.7c-2.6-17.8-2.8-39.2-2.8-63.6l-108.8,1.7
						c5.9,37.3,11.9,94.4-14.9,120c22.8-3,45.3-8.7,66.8-16.8C1231.8,689,1247,681.7,1259.7,671.2z"/>
				</g>
				<path fill="#FFBF83" d="M1203.2,670.2l-68.2,12.7c-32.8,6.1-63.1-19-63.1-52.4v-159c0-55.9,45.3-101.3,101.3-101.3h0
					c55.9,0,101.3,45.3,101.3,101.3v112.7C1274.5,626.3,1244.6,662.4,1203.2,670.2z"/>
				<path fill="#52274C" d="M1051.7,400.8c51.9,26.1,114.3,30.5,169.4,12.1l23.8,62.8c-11.7,36.2-19.8,74.8-22.6,112.8h34.2
					c9.4,0,17.6-2.5,23.8-9.6c6.2-7.1,9.5-16.2,12.2-25.1c14.3-47.2,16.5-98,6.4-146.3c-3.1-14.7-7.7-29.8-18.2-40.6
					c-10.5-10.7-28.5-15.4-40.9-6.9c-4.7-28-36.7-50.1-64.5-44.3c-20.1,4.2-36.4,19.6-56.4,24.1c-13.5,3-27.5,0.8-41.3,1.1
					c-13.8,0.3-28.9,3.8-37,15S1039.3,394.6,1051.7,400.8z"/>
				<path fill="#F89E6A" d="M1273.2,589.9c-7,1.3-14.1,1.8-21.2,1.7c0.2-0.5-0.1-1-0.4-1.5c-0.1-12.2,0.5-25.1,4.5-37.1
					c4-12.1,11.8-23.4,23.3-28.9c11.5-5.5,26.8-3.8,34.9,6c7.5,12.2,4.8,28.8-4,39.9C1301.3,581.2,1287.4,587.3,1273.2,589.9z"/>
				<path fill="#F89E6A" d="M1117.7,498.3c-24.7,38.7-31.7,90.1-31.7,90.1h39.5C1125.5,557.2,1117.7,498.3,1117.7,498.3z"/>
				<circle fill="#071D45" cx="1164.4" cy="508.8" r="10.5"/>
				<circle fill="#071D45" cx="1086" cy="505.1" r="10.5"/>
				<path fill="#EB633E" d="M1089.9,610c6.5,20.1,26.3,33.7,48.2,31.5c21.9-2.2,38.7-19.4,41.1-40.3L1089.9,610z"/>
				<g>
					<path fill="#EB633E" d="M1532.1,950.2c-24-100.7-66.1-197.5-112.6-248.1c0,0-1.2,167.3,27,246c2,5.5,3.9,11,5.7,16.6
						C1479.5,965.2,1506.8,960.2,1532.1,950.2z"/>
					<path fill="#EB633E" d="M1471.8,1048.2c0.6,5.1,1,10.2,1.3,15.3l40-10.9L1471.8,1048.2z"/>
					<path fill="#FFBF83" d="M1452.2,964.6c9,27.3,16.4,56.2,19.6,83.6l41.3,4.4l-40,10.9l-235.1,60.9l-26.6-65.4l-55.5-3
						l-27.2,63.9h31.8l52.4,60.9l337.8-51.7c3.5-54.7-4-117.5-18.6-178.8C1506.8,960.2,1479.5,965.2,1452.2,964.6z"/>
				</g>
				<path fill="#FDDBCF" d="M1419.5,702l-7.1,39.1c-11,60.6-4,123.1,20.1,179.7l0,0c56.8,2,97.9-17.9,97.9-17.9
					C1499.2,771,1419.5,702,1419.5,702z"/>
			</g>
			<g>
				<path fill="#AD6458" d="M407.1,653.5c4.6,6.6,10.1,12.6,16.3,17.7c12.8,10.6,27.9,17.8,43.4,23.7c21.5,8.2,44,13.8,66.8,16.8
					c6.6,6.3,15.1,10.7,26.2,12.4c-16.8,38.5-59.4,64.2-101.3,61.1c-41.9-3.1-80.2-34.8-91.1-75.4
					C392.6,701.1,402.9,681.7,407.1,653.5z"/>
				<path fill="#965348" d="M423.4,671.2c-6.2-5.1-11.8-11.1-16.3-17.7c2.6-17.8,2.8-39.2,2.8-63.6l108.8,1.7
					c-5.9,37.3-11.9,94.4,14.9,120c-22.8-3-45.3-8.7-66.8-16.8C451.3,689,436.2,681.7,423.4,671.2z"/>
			</g>
			<g>
				<path fill="#AD6458" d="M479.9,655.1l68.2,12.7c32.8,6.1,63.1-19,63.1-52.4v-159c0-55.9-45.3-101.3-101.3-101.3h0
					c-55.9,0-101.3,45.3-101.3,101.3v112.7C408.6,611.3,438.6,647.4,479.9,655.1z"/>
				<circle fill="#071D45" cx="518.7" cy="493.8" r="10.5"/>
				<circle fill="#071D45" cx="597.1" cy="490.1" r="10.5"/>
				<path fill="#212020" d="M392.2,530.3c-25-23.9-33.7-62.1-25.7-95.8c8-33.7,31.2-62.5,60-81.8c28.8-19.2,62.8-29.5,97.1-34.2
					c21.7-3,44.8-3.7,64.4,6.1s34.1,32.8,27.6,53.7c-5.7,18.4-25.7,29.5-45,30.2c-19.3,0.7-37.8-6.8-55.1-15.4
					c-16.1-8-34.5-17.2-51.1-10.3c-18.1,7.5-24.1,29.9-25.8,49.4c-4.3,49.6,3.9,100.3,23.6,146.1c4.1,9.4,9.6,19.5,19.4,22.5
					c15.3,4.6,38.5-17.3,51.9-26c26.4-17,71.6-19.4,86.8,8c8,14.5-3.2,52.6-12.6,66.2c-9.4,13.6-26,20.9-42.4,22.9
					c-16.4,2-33.1-0.7-49.4-3.3c-29.7-4.8-60.6-10.2-84.7-28.2C399.2,616.5,378.5,568,392.2,530.3z"/>
				<path fill="#965348" d="M566.8,560.4c18.8-1.5,37.6-2.9,56.4-4.4c-16.3-23.8-37.4-44.3-61.8-59.8
					C559.4,517.5,561.6,539.8,566.8,560.4z"/>
			</g>
			<g>
				<path fill="#00979D" d="M207.3,810.8c-48,125.5-88.3,324.2-69.5,520.6h194c-2-26.9-2.9-54.8-3-83.4
					c-51.5-66.8-89-144.5-108.8-226.5C203.3,952.7,199.2,881.1,207.3,810.8z"/>
				<path fill="#00848A" d="M367.4,709.7L263.7,702c-17.9,22.2-37.7,60-56.4,108.8c-8.1,70.2-4,141.9,12.6,210.7
					c19.8,82,57.3,159.7,108.8,226.5C327.9,1047.5,367.7,815.5,367.4,709.7z"/>
			</g>
			<g>
				<path fill="#00979D" d="M533.6,1331.4h82.3c13.7-53.8,9.1-114.6,1.6-174.7l-85.8,39.6C530.2,1239,530.5,1284,533.6,1331.4z"/>
				<path fill="#00979D" d="M607.6,940.1c28.8-112.8,3.5-212.2,3.5-212.2l-51.4-3.8c18.8,77.9,3.2,171.5-11.4,286.4l53.2-24.5
					C602.1,969.7,604,954.4,607.6,940.1z"/>
				<path fill="#00848A" d="M601.5,985.9l-53.2,24.5c-7.2,56.6-14.1,118.3-16.6,185.9l85.8-39.6
					C609.9,1096.6,599.4,1037.1,601.5,985.9z"/>
			</g>
			<g>
				<path fill="#AD6458" d="M905.5,997.8c-6.8-4.7-15.1-6.6-23.1-8.4c-41.3-9.3-86.3-24.7-128.7-24.7l-26,11.2v71.2l26.6-13.9
					c29.2,12.7,53.7,35.8,67.9,64.3c14.8-10.9,29.6-21.8,44.4-32.8c4.8-3.6,9.8-7.3,12.6-12.7c4.8-9.2,1.5-20.9-5.1-28.9
					s-11.7-18-20.9-22.8c20.9,6.1,41.8,12.3,62.7,18.4C917.4,1010.7,912.3,1002.5,905.5,997.8z"/>
				<path fill="#00979D" d="M448.8,1086c0,0-103-300.6-185.1-384c-50.1,83.5,26.1,314.7,146.7,510.5l317.4-149V957.3L448.8,1086z"/>
			</g>
			<path fill="#76E4AF" d="M1327.2,68.6H942c-24.5,0-44.4,19.9-44.4,44.4v107.2c0,24.5,19.9,44.4,44.4,44.4h17.4L673.8,436.2
				L1099,264.6h228.2c24.5,0,44.4-19.9,44.4-44.4V113C1371.6,88.4,1351.7,68.6,1327.2,68.6z"/>
			<path fill="#FDDBCF" d="M974.1,412.2L760,264.6h23.5c24.5,0,44.4-19.9,44.4-44.4V113c0-24.5-19.9-44.4-44.4-44.4H324.6
				c-24.5,0-44.4,19.9-44.4,44.4v107.2c0,24.5,19.9,44.4,44.4,44.4h298.2L974.1,412.2z"/>
		</g>
	</g>
</g>
</svg>
